<?xml version="1.0" encoding="utf-8"?>
<!-- Generator: Adobe Illustrator 14.0.0, SVG Export Plug-In . SVG Version: 6.00 Build 43363)  -->
<!DOCTYPE svg PUBLIC "-//W3C//DTD SVG 1.1//EN" "http://www.w3.org/Graphics/SVG/1.1/DTD/svg11.dtd">
<svg version="1.1" id="图层_1" xmlns="http://www.w3.org/2000/svg" xmlns:xlink="http://www.w3.org/1999/xlink" x="0px" y="0px"
	 width="16px" height="16px" viewBox="0 0 16 16" enable-background="new 0 0 16 16" xml:space="preserve">
<path fill="#1296DB" d="M9.227,13.51c0.179-0.355,0.612-0.498,0.967-0.319c0.355,0.179,0.499,0.611,0.32,0.967
	c-0.209,0.414-0.462,0.807-0.759,1.175c-0.446,0.549-1.252,0.632-1.801,0.186c-0.033-0.027-0.065-0.056-0.096-0.086l-3.227-3.228
	L4.49,12.347c-2.331,2.349-3.322,3.34-3.43,3.424c-0.035,0.025-0.035,0.025-0.906-0.017l-0.131-0.958
	c0.026-0.037,0.026-0.037,0.049-0.063l0.023-0.027l0.02-0.019l0.047-0.048l0.186-0.188L1.098,13.7
	c0.837-0.838,1.675-1.675,2.514-2.513L0.375,7.976C0.131,7.732,0,7.408,0,7.072C0,6.691,0.168,6.328,0.47,6.078
	c1.632-1.324,3.797-1.791,5.83-1.258l2.931-2.325c0.044-0.655,0.255-1.288,0.612-1.839c0.383-0.584,1.166-0.747,1.75-0.364
	c0.073,0.048,0.141,0.103,0.202,0.164l3.564,3.572c0.494,0.492,0.495,1.292,0.003,1.786c-0.063,0.063-0.132,0.119-0.207,0.167
	c-0.552,0.357-1.182,0.564-1.83,0.607l-2.325,2.933c0.143,0.547,0.216,1.109,0.216,1.675c0,0.397-0.322,0.72-0.72,0.72
	c-0.398,0-0.721-0.322-0.721-0.72c0-0.544-0.086-1.086-0.256-1.606L9.4,9.222l3.233-4.078l0.361,0.012
	c0.414,0.013,0.824-0.08,1.187-0.271l-3.243-3.251c-0.19,0.362-0.284,0.768-0.273,1.178l0.019,0.37L6.599,6.42L6.232,6.3
	C4.629,5.775,2.869,6.068,1.521,7.084l3.111,3.085l0.506,0.504l0.512,0.505l3.099,3.105C8.931,14.041,9.092,13.781,9.227,13.51
	L9.227,13.51z"/>
</svg>
