<?xml version="1.0" standalone="no"?><!DOCTYPE svg PUBLIC "-//W3C//DTD SVG 1.1//EN" "http://www.w3.org/Graphics/SVG/1.1/DTD/svg11.dtd"><svg t="1582620125905" class="icon" viewBox="0 0 1024 1024" version="1.1" xmlns="http://www.w3.org/2000/svg" p-id="30055" width="16" height="16" xmlns:xlink="http://www.w3.org/1999/xlink"><defs><style type="text/css"></style></defs><path d="M581.841455 191.464727l-26.205091-6.749091v-49.338181c0-17.058909-13.591273-30.650182-30.557091-30.650182-16.802909 0-30.533818 13.730909-30.533818 30.650182v46.266181l-29.137455 4.887273C331.892364 208.919273 232.727273 325.003636 232.727273 461.870545V663.272727H163.072c-19.386182 0-35.072 15.639273-35.072 34.909091 0 19.223273 15.709091 34.909091 35.072 34.909091h697.856c19.386182 0 35.072-15.639273 35.072-34.909091 0-19.223273-15.709091-34.909091-35.072-34.909091H791.272727v-201.402182a279.365818 279.365818 0 0 0-209.431272-270.405818zM861.090909 461.893818V593.454545a104.866909 104.866909 0 0 1 104.727273 104.727273c0 57.856-46.964364 104.727273-104.890182 104.727273H163.072A104.866909 104.866909 0 0 1 58.181818 698.181818 104.797091 104.797091 0 0 1 162.909091 593.454545v-131.584c0-161.233455 110.056727-299.357091 262.493091-338.199272A100.468364 100.468364 0 0 1 525.079273 34.909091a100.282182 100.282182 0 0 1 100.305454 96.791273A349.253818 349.253818 0 0 1 861.090909 461.870545zM337.454545 861.090909a34.909091 34.909091 0 0 1 69.818182 0c0 49.664 48.779636 93.090909 104.727273 93.090909 55.389091 0 104.727273-44.241455 104.727273-93.090909a34.909091 34.909091 0 0 1 69.818182 0c0 89.204364-82.199273 162.909091-174.545455 162.909091-92.811636 0-174.545455-72.750545-174.545455-162.909091z" p-id="30056" fill="#22334a"></path></svg>