<?xml version="1.0" encoding="utf-8"?>
<!-- Generator: Adobe Illustrator 14.0.0, SVG Export Plug-In . SVG Version: 6.00 Build 43363)  -->
<!DOCTYPE svg PUBLIC "-//W3C//DTD SVG 1.1//EN" "http://www.w3.org/Graphics/SVG/1.1/DTD/svg11.dtd">
<svg version="1.1" id="图层_1" xmlns="http://www.w3.org/2000/svg" xmlns:xlink="http://www.w3.org/1999/xlink" x="0px" y="0px"
	 width="17.453px" height="16px" viewBox="0 0 17.453 16" enable-background="new 0 0 17.453 16" xml:space="preserve">
<path fill="#00FFFF" d="M5.35,2.541L2.026,4.442v9.108l3.324-1.901V2.541z M11.999,4.442v9.108l3.323-1.901V2.541L11.999,4.442z
	 M10.669,4.442L6.68,2.447v9.175l3.989,1.994V4.442z M11.021,15.26l-5.006-2.467l-4.322,2.479c-0.318,0.184-0.724,0.075-0.908-0.243
	c-0.059-0.102-0.089-0.218-0.089-0.336V4.057C0.695,3.818,0.822,3.598,1.028,3.478l4.654-2.659c0.101-0.057,0.216-0.087,0.333-0.086
	c0.109-0.001,0.217,0.026,0.313,0.08l5.007,2.493l4.32-2.487c0.317-0.184,0.725-0.074,0.908,0.244
	c0.058,0.102,0.09,0.217,0.089,0.335v10.637c0.001,0.239-0.126,0.46-0.332,0.578l-4.653,2.66c-0.103,0.058-0.217,0.087-0.332,0.086
	c-0.109,0.001-0.217-0.024-0.313-0.072V15.26z"/>
</svg>
