<?xml version="1.0" encoding="utf-8"?>
<!-- Generator: Adobe Illustrator 14.0.0, SVG Export Plug-In . SVG Version: 6.00 Build 43363)  -->
<!DOCTYPE svg PUBLIC "-//W3C//DTD SVG 1.1//EN" "http://www.w3.org/Graphics/SVG/1.1/DTD/svg11.dtd">
<svg version="1.1" id="图层_1" xmlns="http://www.w3.org/2000/svg" xmlns:xlink="http://www.w3.org/1999/xlink" x="0px" y="0px"
	 width="16px" height="16px" viewBox="0 0 16 16" enable-background="new 0 0 16 16" xml:space="preserve">
<path fill="#00FFFF" d="M13.659,1.232H2.469c-1.235,0-2.238,1.003-2.238,2.238v7.203c0,1.235,1.003,2.238,2.238,2.238h2.235v1.143
	c0,0.42,0.235,0.798,0.611,0.984C5.47,15.112,5.636,15.15,5.8,15.15c0.236,0,0.47-0.077,0.666-0.228l2.613-2.012h4.58
	c1.235,0,2.238-1.003,2.238-2.238V3.47C15.897,2.235,14.895,1.232,13.659,1.232z M14.778,10.673c0,0.619-0.501,1.119-1.119,1.119
	l-4.766-0.001c-0.124,0-0.244,0.041-0.34,0.115l-2.732,2.149v-1.705c0-0.309-0.25-0.559-0.559-0.559H2.469
	c-0.619,0-1.119-0.5-1.119-1.119V3.47c0-0.619,0.5-1.119,1.119-1.119h11.19c0.618,0,1.119,0.5,1.119,1.119V10.673z"/>
<path fill="#00FFFF" d="M2.46,7.407c0,0.605,0.491,1.096,1.096,1.096c0.606,0,1.097-0.491,1.097-1.096l0,0
	c0-0.605-0.49-1.097-1.096-1.097C2.951,6.311,2.46,6.801,2.46,7.407C2.46,7.406,2.46,7.406,2.46,7.407z"/>
<path fill="#00FFFF" d="M6.845,7.407c0,0.605,0.491,1.096,1.096,1.096c0.606,0,1.097-0.491,1.097-1.096
	c0.001-0.605-0.49-1.097-1.096-1.097C7.336,6.311,6.845,6.801,6.845,7.407C6.845,7.406,6.845,7.406,6.845,7.407z"/>
<path fill="#00FFFF" d="M11.23,7.407c0,0.605,0.491,1.096,1.097,1.096c0.604,0,1.096-0.491,1.096-1.096s-0.491-1.096-1.096-1.096
	C11.722,6.311,11.23,6.802,11.23,7.407z"/>
</svg>
