<?xml version="1.0" encoding="utf-8"?>
<!-- Generator: Adobe Illustrator 14.0.0, SVG Export Plug-In . SVG Version: 6.00 Build 43363)  -->
<!DOCTYPE svg PUBLIC "-//W3C//DTD SVG 1.0//EN" "http://www.w3.org/TR/2001/REC-SVG-20010904/DTD/svg10.dtd">
<svg version="1.0" id="图层_1" xmlns="http://www.w3.org/2000/svg" xmlns:xlink="http://www.w3.org/1999/xlink" x="0px" y="0px"
	 width="16px" height="16px" viewBox="0 0 16 16" enable-background="new 0 0 16 16" xml:space="preserve">
<path fill="#00FFFF" d="M5.927,7.218H2.779c-0.868,0-1.574-0.706-1.574-1.574V2.496c0-0.868,0.707-1.574,1.574-1.574h3.148
	c0.868,0,1.574,0.706,1.574,1.574v3.148C7.501,6.513,6.794,7.218,5.927,7.218z M2.779,1.972c-0.29,0-0.525,0.235-0.525,0.524v3.148
	c0,0.289,0.235,0.524,0.525,0.524h3.148c0.289,0,0.524-0.235,0.524-0.524V2.496c0-0.289-0.235-0.524-0.524-0.524H2.779z
	 M5.927,14.564H2.779c-0.868,0-1.574-0.707-1.574-1.576V9.842c0-0.867,0.707-1.574,1.574-1.574h3.148
	c0.868,0,1.574,0.707,1.574,1.574v3.146C7.501,13.859,6.794,14.564,5.927,14.564z M2.779,9.316c-0.29,0-0.525,0.236-0.525,0.524
	v3.147c0,0.289,0.235,0.525,0.525,0.525h3.148c0.289,0,0.524-0.236,0.524-0.525V9.842c0-0.289-0.235-0.523-0.524-0.523H2.779V9.316z
	 M13.221,7.218h-3.148C9.206,7.218,8.5,6.512,8.5,5.644V2.496c0-0.868,0.706-1.574,1.572-1.574h3.148
	c0.868,0,1.575,0.706,1.575,1.574v3.148C14.796,6.513,14.089,7.218,13.221,7.218z M10.072,1.972c-0.289,0-0.524,0.235-0.524,0.524
	v3.148c0,0.289,0.235,0.524,0.524,0.524h3.148c0.289,0,0.524-0.235,0.524-0.524V2.496c0-0.289-0.235-0.524-0.524-0.524H10.072z
	 M13.221,14.564h-3.148c-0.866,0-1.572-0.707-1.572-1.576V9.842c0-0.867,0.706-1.574,1.572-1.574h3.148
	c0.868,0,1.575,0.707,1.575,1.574v3.146C14.796,13.859,14.089,14.564,13.221,14.564z M10.072,9.316
	c-0.289,0-0.524,0.236-0.524,0.524v3.147c0,0.289,0.235,0.525,0.524,0.525h3.148c0.289,0,0.524-0.236,0.524-0.525V9.842
	c0-0.289-0.235-0.523-0.524-0.523h-3.148V9.316z"/>
</svg>
