<?xml version="1.0" encoding="utf-8"?>
<!-- Generator: Adobe Illustrator 14.0.0, SVG Export Plug-In . SVG Version: 6.00 Build 43363)  -->
<!DOCTYPE svg PUBLIC "-//W3C//DTD SVG 1.1//EN" "http://www.w3.org/Graphics/SVG/1.1/DTD/svg11.dtd">
<svg version="1.1" id="图层_1" xmlns="http://www.w3.org/2000/svg" xmlns:xlink="http://www.w3.org/1999/xlink" x="0px" y="0px"
	 width="16px" height="16px" viewBox="0 0 16 16" enable-background="new 0 0 16 16" xml:space="preserve">
<path fill="#00FFFF" d="M7.23,0.8c3.551,0,6.43,2.879,6.43,6.431c0,1.537-0.55,3.021-1.551,4.187l2.48,2.48
	c0.307,0.285,0.323,0.765,0.039,1.07c-0.285,0.307-0.764,0.322-1.07,0.038c-0.013-0.013-0.025-0.024-0.037-0.038l-2.526-2.525
	c-2.879,2.079-6.898,1.432-8.978-1.447c-2.08-2.879-1.431-6.899,1.448-8.979C4.561,1.226,5.878,0.8,7.23,0.8z M7.23,2.313
	c-2.716,0-4.917,2.201-4.917,4.917c0,2.715,2.202,4.917,4.917,4.917s4.917-2.201,4.917-4.917C12.147,4.514,9.946,2.313,7.23,2.313z"
	/>
</svg>
