<?xml version="1.0" encoding="utf-8"?>
<!-- Generator: Adobe Illustrator 14.0.0, SVG Export Plug-In . SVG Version: 6.00 Build 43363)  -->
<!DOCTYPE svg PUBLIC "-//W3C//DTD SVG 1.1//EN" "http://www.w3.org/Graphics/SVG/1.1/DTD/svg11.dtd">
<svg version="1.1" id="图层_1" xmlns="http://www.w3.org/2000/svg" xmlns:xlink="http://www.w3.org/1999/xlink" x="0px" y="0px"
	 width="16px" height="16px" viewBox="0 0 16 16" enable-background="new 0 0 16 16" xml:space="preserve">
<path fill="#00FFFF" d="M13.625,13.5H2.375C1.065,13.5,0,12.435,0,11.125v-6.25C0,3.565,1.065,2.5,2.375,2.5h11.25
	C14.935,2.5,16,3.565,16,4.875v6.25C16,12.435,14.935,13.5,13.625,13.5z M2.375,3.5C1.617,3.5,1,4.117,1,4.875v6.25
	C1,11.883,1.617,12.5,2.375,12.5h11.25c0.758,0,1.375-0.617,1.375-1.375v-6.25C15,4.117,14.383,3.5,13.625,3.5H2.375z"/>
<path fill="#00FFFF" d="M5.315,9.565l-3.42,3.421c-0.242,0.242-0.641,0.242-0.883,0s-0.242-0.641,0-0.883l3.42-3.421
	c0.242-0.242,0.641-0.242,0.883,0C5.56,8.925,5.56,9.323,5.315,9.565z M10.692,9.565l3.42,3.421c0.242,0.242,0.641,0.242,0.883,0
	s0.242-0.641,0-0.883l-3.419-3.421c-0.242-0.242-0.641-0.242-0.883,0C10.45,8.925,10.45,9.323,10.692,9.565z M8,10.075
	c-0.608,0-1.216-0.231-1.68-0.694L0.773,3.833l0.706-0.708l5.549,5.549c0.536,0.535,1.408,0.535,1.945,0l5.547-5.549l0.708,0.708
	L9.68,9.381C9.216,9.844,8.607,10.075,8,10.075z"/>
</svg>
