<?xml version="1.0" encoding="utf-8"?>
<!-- Generator: Adobe Illustrator 14.0.0, SVG Export Plug-In . SVG Version: 6.00 Build 43363)  -->
<!DOCTYPE svg PUBLIC "-//W3C//DTD SVG 1.1//EN" "http://www.w3.org/Graphics/SVG/1.1/DTD/svg11.dtd">
<svg version="1.1" id="图层_1" xmlns="http://www.w3.org/2000/svg" xmlns:xlink="http://www.w3.org/1999/xlink" x="0px" y="0px"
	 width="16.531px" height="16px" viewBox="0 0 16.531 16" enable-background="new 0 0 16.531 16" xml:space="preserve">
<path fill="#00FFFF" d="M13.436,2.676c-0.312-0.202-0.729-0.113-0.931,0.199c-0.002,0.003-0.004,0.006-0.005,0.008
	c-0.205,0.319-0.117,0.744,0.197,0.956c0.073,0.05,1.82,1.259,1.82,4.265c0,3.014-1.676,4.224-1.742,4.269
	c-0.314,0.215-0.398,0.643-0.189,0.961c0.206,0.314,0.627,0.401,0.94,0.195c0.001-0.001,0.003-0.002,0.005-0.004
	c0.097-0.064,2.351-1.633,2.351-5.422C15.882,4.309,13.537,2.741,13.436,2.676"/>
<path fill="#00FFFF" d="M11.435,5.157c-0.337-0.159-0.738-0.016-0.897,0.321c-0.001,0.001-0.002,0.002-0.002,0.004
	c-0.161,0.341-0.023,0.75,0.311,0.924c0.044,0.022,1.065,0.561,1.065,2.097c0,1.639-0.955,2.182-0.986,2.199
	c-0.339,0.174-0.475,0.588-0.306,0.93c0.166,0.338,0.576,0.477,0.914,0.311c0,0,0.001,0,0.002-0.001
	c0.071-0.036,1.74-0.913,1.74-3.438C13.275,6.063,11.51,5.192,11.435,5.157L11.435,5.157z M8.332,13.51l-1.424-1.295l-2.331-2.119
	C4.445,9.977,4.274,9.91,4.097,9.91L1.924,9.911L1.917,5.338h2.861c0.219,0.041,0.444-0.023,0.61-0.173l1.52-1.382l1.424-1.294
	L8.332,13.51L8.332,13.51z M9.178,0.577C9.003,0.5,8.543,0.372,8.039,0.831L6.908,1.859L4.647,3.915h-2.73
	C1.133,3.918,0.5,4.554,0.5,5.337v4.574c-0.001,0.784,0.633,1.42,1.417,1.423h1.906l3.085,2.806l1.132,1.028
	c0.285,0.26,0.556,0.332,0.769,0.332c0.165,0,0.296-0.043,0.371-0.077c0.174-0.077,0.577-0.329,0.577-1.01V1.585
	C9.757,1.114,9.54,0.739,9.178,0.577z"/>
</svg>
