<?xml version="1.0" encoding="utf-8"?>
<!-- Generator: Adobe Illustrator 14.0.0, SVG Export Plug-In . SVG Version: 6.00 Build 43363)  -->
<!DOCTYPE svg PUBLIC "-//W3C//DTD SVG 1.0//EN" "http://www.w3.org/TR/2001/REC-SVG-20010904/DTD/svg10.dtd">
<svg version="1.0" id="图层_1" xmlns="http://www.w3.org/2000/svg" xmlns:xlink="http://www.w3.org/1999/xlink" x="0px" y="0px"
	 width="16px" height="16px" viewBox="0 0 16 16" enable-background="new 0 0 16 16" xml:space="preserve">
<path fill="#00FFFF" d="M4.224,10.805c0-0.3-0.243-0.543-0.542-0.543H1.875c-0.3,0-0.542,0.243-0.542,0.543
	c0,0.299,0.242,0.541,0.542,0.541h1.807C3.981,11.346,4.224,11.104,4.224,10.805L4.224,10.805z M1.875,5.956h1.807
	c0.3,0,0.542-0.242,0.542-0.542c0-0.299-0.243-0.542-0.542-0.542H1.875c-0.3,0-0.542,0.243-0.542,0.542
	C1.333,5.714,1.576,5.956,1.875,5.956z"/>
<path fill="#00FFFF" d="M13.738,1.349H3.381c-0.599,0-1.084,0.485-1.084,1.084v0.843c0,0.299,0.242,0.542,0.542,0.542
	c0.299,0,0.542-0.243,0.542-0.542V2.433h10.357v11.322H3.381v-0.813H3.379c0-0.012,0.002-0.021,0.002-0.029
	c0-0.301-0.243-0.542-0.542-0.542c-0.3,0-0.542,0.241-0.542,0.542c0,0.01,0,0.02,0.001,0.029H2.297v0.813
	c0,0.599,0.485,1.084,1.084,1.084h10.357c0.6,0,1.084-0.485,1.084-1.084V2.433C14.822,1.834,14.338,1.349,13.738,1.349z"/>
<path fill="#00FFFF" d="M1.875,8.65h1.807c0.299,0,0.542-0.242,0.542-0.542c0-0.299-0.243-0.542-0.542-0.542H1.875
	c-0.3,0-0.542,0.243-0.542,0.542C1.333,8.409,1.576,8.65,1.875,8.65z M9.035,9.178c-1.361,0-2.469-1.108-2.469-2.469
	c0-1.36,1.108-2.469,2.469-2.469s2.47,1.108,2.47,2.469S10.396,9.178,9.035,9.178L9.035,9.178z M9.035,5.324
	c-0.763,0-1.385,0.622-1.385,1.385c0,0.764,0.622,1.385,1.385,1.385c0.764,0,1.386-0.622,1.386-1.385S9.799,5.324,9.035,5.324
	L9.035,5.324z"/>
<path fill="#00FFFF" d="M11.874,11.947c-0.256,0-0.481-0.18-0.53-0.44C11.133,10.4,10.164,9.6,9.035,9.6
	c-1.127,0-2.097,0.803-2.308,1.907c-0.049,0.261-0.277,0.44-0.531,0.44c-0.034,0-0.068-0.004-0.101-0.01
	c-0.293-0.055-0.488-0.338-0.432-0.633c0.306-1.617,1.724-2.789,3.372-2.789c1.648,0,3.066,1.172,3.373,2.789
	c0.055,0.293-0.137,0.578-0.434,0.633C11.941,11.943,11.908,11.947,11.874,11.947z"/>
</svg>
