<?xml version="1.0" encoding="utf-8"?>
<!-- Generator: Adobe Illustrator 14.0.0, SVG Export Plug-In . SVG Version: 6.00 Build 43363)  -->
<!DOCTYPE svg PUBLIC "-//W3C//DTD SVG 1.1//EN" "http://www.w3.org/Graphics/SVG/1.1/DTD/svg11.dtd">
<svg version="1.1" id="图层_1" xmlns="http://www.w3.org/2000/svg" xmlns:xlink="http://www.w3.org/1999/xlink" x="0px" y="0px"
	 width="16px" height="16px" viewBox="0 0 16 16" enable-background="new 0 0 16 16" xml:space="preserve">
<path fill="#00FFFF" d="M15.523,7.059L9.359,0.593C8.752-0.05,7.737-0.078,7.095,0.531C7.082,0.543,7.068,0.556,7.056,0.569
	L0.494,7.167C-0.274,7.938,0.109,8.87,1.198,8.863l1.858-0.012L2.508,8.306v5.963c0,0.904,0.728,1.638,1.628,1.638h1.979v-1.091
	H4.136c-0.296,0-0.538-0.243-0.538-0.547V8.306c0-0.301-0.244-0.545-0.545-0.545c-0.001,0-0.002,0-0.003,0L1.191,7.772
	c-0.079,0-0.129-0.008-0.146-0.015c0.035,0.015,0.083,0.058,0.113,0.131c0.03,0.073,0.027,0.136,0.014,0.168
	c0.007-0.02,0.039-0.063,0.096-0.121L7.83,1.338C8.026,1.136,8.35,1.131,8.553,1.328C8.559,1.333,8.564,1.339,8.57,1.345
	l6.164,6.466c0.055,0.057,0.084,0.101,0.092,0.121c-0.012-0.049-0.007-0.101,0.014-0.146c0.027-0.065,0.069-0.104,0.1-0.118
	c-0.02,0.008-0.068,0.017-0.145,0.018l0.008,1.091C15.881,8.77,16.269,7.838,15.523,7.059z M12.051,15.906
	c0.9,0,1.629-0.734,1.629-1.637V8.242l-0.542,0.545l1.664-0.01l-0.007-1.091l-1.664,0.011c-0.301,0.001-0.543,0.245-0.543,0.545
	v6.027c0,0.303-0.242,0.547-0.537,0.547h-1.979v1.09H12.051z M9.088,10.453c0.002,0,0.004,5.456,0.004,5.456h1.09v-5.458
	C10.18,9.849,9.69,9.361,9.088,9.363H6.911c-0.603-0.002-1.092,0.485-1.094,1.088h1.091C6.909,10.455,9.088,10.453,9.088,10.453z
	 M6.909,10.451H5.817v5.458h1.091V10.451z"/>
</svg>
